<svg width="22" height="21" viewBox="0 0 22 21" fill="none" xmlns="http://www.w3.org/2000/svg">
<g clip-path="url(#clip0_388_38)">
<path d="M9.16999 2.82861L10.1421 1.96143C10.5538 1.59424 11.2194 1.59424 11.6267 1.96143L20.1397 9.55127C20.5513 9.91846 20.5513 10.5122 20.1397 10.8755L11.6267 18.4692C11.215 18.8364 10.5494 18.8364 10.1421 18.4692L9.16999 17.6021C8.75397 17.231 8.76273 16.6255 9.1875 16.2622L14.4643 11.7778H1.87875C1.29632 11.7778 0.827759 11.3599 0.827759 10.8403V9.59033C0.827759 9.0708 1.29632 8.65283 1.87875 8.65283H14.4643L9.1875 4.16846C8.75835 3.80518 8.74959 3.19971 9.16999 2.82861Z" fill="black"/>
</g>
<defs>
<clipPath id="clip0_388_38">
<rect width="21" height="20" fill="white" transform="translate(0.708496 0.215332)"/>
</clipPath>
</defs>
</svg>
