<svg width="26" height="26" viewBox="0 0 26 26" fill="none" xmlns="http://www.w3.org/2000/svg">
<path d="M3.38599 14.6357L2.302 13.5518C1.84302 13.0928 1.84302 12.3506 2.302 11.8965L11.7893 2.4043C12.2483 1.94531 12.9905 1.94531 13.4446 2.4043L22.9319 11.8916C23.3909 12.3506 23.3909 13.0928 22.9319 13.5469L21.8479 14.6309C21.384 15.0947 20.6272 15.085 20.1731 14.6113L14.5725 8.73242V22.7656C14.5725 23.415 14.05 23.9375 13.4006 23.9375H11.8381C11.1887 23.9375 10.6663 23.415 10.6663 22.7656V8.73242L5.06079 14.6162C4.60669 15.0947 3.84985 15.1045 3.38599 14.6357Z" fill="white"/>
</svg>
