<svg width="38" height="38" viewBox="0 0 38 38" fill="none" xmlns="http://www.w3.org/2000/svg">
<g id="book-open" clip-path="url(#clip0_47_449)">
<path id="Vector" d="M35.7721 0.0046063C32.1567 0.2684 24.9709 1.22857 20.5349 4.71981C20.2288 4.9607 20.0552 5.38904 20.0552 5.8369V36.7007C20.0552 37.6804 20.8885 38.2996 21.5911 37.845C26.1551 34.8915 32.7558 34.0857 36.0195 33.8652C37.1338 33.7897 38 32.6412 38 31.2645V2.60861C38.0007 1.10643 36.9873 -0.0836076 35.7721 0.0046063ZM17.4651 4.71981C13.0297 1.22857 5.84392 0.269248 2.22858 0.0046063C1.01335 -0.0836076 0 1.10643 0 2.60861V31.2654C0 32.6429 0.86623 33.7914 1.98052 33.866C5.24554 34.0865 11.8495 34.8932 16.4135 37.8484C17.1142 38.3021 17.9448 37.6838 17.9448 36.7067V5.82163C17.9448 5.37293 17.7719 4.96155 17.4651 4.71981Z" fill="black"/>
</g>
<defs>
<clipPath id="clip0_47_449">
<rect width="38" height="38" fill="white"/>
</clipPath>
</defs>
</svg>
